<?xml version="1.0" standalone="no"?>
<!DOCTYPE svg PUBLIC "-//W3C//DTD SVG 20010904//EN"
 "http://www.w3.org/TR/2001/REC-SVG-20010904/DTD/svg10.dtd">
<svg version="1.0" xmlns="http://www.w3.org/2000/svg"
 width="1084.000000pt" height="1084.000000pt" viewBox="0 0 1084.000000 1084.000000"
 preserveAspectRatio="xMidYMid meet">
<metadata>
Created by potrace 1.11, written by Peter Selinger 2001-2013
</metadata>
<g transform="translate(0.000000,1084.000000) scale(0.100000,-0.100000)"
fill="#000000" stroke="none">
<path d="M3628 10835 c-2 -2 -48 -5 -103 -9 -108 -7 -104 -7 -275 -31 -8 -1
-37 -5 -65 -9 -153 -19 -506 -113 -695 -185 -182 -68 -460 -196 -468 -213 -2
-5 -9 -8 -14 -8 -15 0 -148 -78 -273 -159 -337 -219 -655 -509 -907 -826 -222
-279 -360 -512 -528 -889 -118 -264 -232 -683 -265 -976 -3 -25 -7 -54 -10
-65 -2 -11 -7 -67 -12 -125 -9 -132 -10 -3691 -1 -3821 8 -98 35 -322 43 -349
2 -8 7 -30 10 -47 3 -18 7 -45 10 -60 32 -184 150 -564 229 -736 14 -32 26
-60 26 -63 0 -20 171 -343 243 -459 67 -107 246 -357 294 -410 10 -11 41 -47
68 -80 69 -82 296 -309 375 -375 36 -30 70 -59 75 -65 6 -6 28 -24 50 -40 22
-17 42 -33 45 -36 9 -11 181 -133 270 -191 429 -279 1000 -496 1485 -562 22
-3 73 -10 114 -16 40 -6 119 -14 175 -18 134 -9 3665 -9 3781 1 50 4 115 10
145 12 93 9 298 44 414 71 61 14 119 27 129 29 32 7 190 55 267 82 475 163
959 448 1315 773 221 203 376 378 593 675 18 24 101 154 127 200 17 28 35 59
42 70 41 68 187 369 227 469 83 208 162 471 191 637 3 18 8 35 10 38 2 4 6 25
9 47 4 22 8 51 11 64 3 14 10 63 16 110 6 47 12 96 15 110 15 98 19 464 19
2040 0 1568 -3 1870 -20 2005 -7 61 -16 122 -20 146 -2 13 -6 42 -10 64 -4 32
-33 176 -50 255 -62 286 -223 695 -390 990 -60 106 -202 325 -263 405 -26 33
-50 65 -54 70 -4 6 -51 62 -105 125 -545 640 -1286 1081 -2108 1256 -35 7
-139 26 -170 31 -16 2 -55 8 -85 13 -30 5 -86 12 -125 15 -38 4 -81 9 -95 12
-23 5 -3706 13 -3712 8z"/>
</g>
</svg>
